<svg width="915" height="959" viewBox="0 0 915 959" fill="none" xmlns="http://www.w3.org/2000/svg">
<path d="M675.5 791.5C675.5 811.382 657.815 827.5 636 827.5C614.185 827.5 581 830.882 581 811C581 791.118 589.335 768.5 611.151 768.5C632.966 768.5 675.5 771.618 675.5 791.5Z" fill="#00AFAA"/>
<path d="M193 612.458C193 632.653 153.955 632.403 132.574 650.233C111.192 668.062 84 673.147 84 652.952C84 632.758 91.1145 614.573 132.574 614.573C174.033 614.573 193 592.263 193 612.458Z" fill="#00AFAA"/>
<path d="M276 413.032C276 448.667 226.94 493 190.6 493C154.26 493 122 432.537 122 396.901C122 361.266 147.96 354 184.3 354C220.64 354 276 377.397 276 413.032Z" fill="#00AFAA"/>
<path d="M637.841 704.618C559.93 704.348 449.525 781.389 347.676 787.503C246.681 793.39 154.242 728.349 198.931 662.429C242.765 596.737 423.727 530.165 432.914 403.239C442.1 276.312 280.365 88.8039 271.824 -5.02075C262.2 -99.4719 405.541 -101.093 536.915 -126.981C668.289 -152.869 788.551 -203.251 861.899 -151.423C935.246 -99.5961 961.907 55.2948 1065.86 142.892C1169.81 230.49 1350.19 251.022 1364.27 314.083C1377.48 377.372 1224.39 483.19 1126.41 558.747C1028.43 634.305 984.711 679.83 940.138 725.584C896.419 771.109 850.991 817.091 806.308 800.635C760.771 784.408 715.98 705.743 637.841 704.618Z" fill="#00AFAA"/>
</svg>
