<svg width="88" height="33" viewBox="0 0 88 33" fill="none" xmlns="http://www.w3.org/2000/svg">
<path d="M15.9881 9.46442C15.3519 10.1007 15.3519 11.1448 16.0045 11.7974L20.9477 16.7407C22.0571 17.899 22.0408 19.7588 20.8988 20.9008C19.7731 22.0265 17.9459 22.0265 16.7712 20.9171L11.8117 15.9902C11.1591 15.3376 10.0986 15.3539 9.44606 16.0065L5.8732 19.5957C5.188 20.3788 5.22063 21.5534 5.97109 22.3039L13.9162 30.249L14.1446 30.4774C14.9277 31.2605 16.1839 31.2605 16.9507 30.4774L17.1791 30.249L26.7557 20.6724C27.5388 19.8893 27.5388 18.6331 26.7557 17.8664L18.3537 9.46442C17.7012 8.81185 16.6407 8.81185 15.9881 9.46442ZM16.0045 24.8652C16.2655 25.1263 16.2655 25.5341 16.0045 25.7952C15.7434 26.0562 15.3356 26.0562 15.0745 25.7952L10.1802 20.9008C9.91918 20.6398 9.91918 20.2319 10.1802 19.9709C10.4412 19.7099 10.8491 19.7099 11.1101 19.9709L16.0045 24.8652Z" fill="white"/>
<path d="M14.1283 0.57306L13.8999 0.801461L13.6389 1.06249L0.81572 13.8856L0.587319 14.114C-0.195773 14.8971 -0.195773 16.1533 0.587319 16.9201L0.81572 17.1485L2.23507 18.5679C2.28402 18.6168 2.33296 18.6658 2.39822 18.7147C3.18131 19.3346 4.30701 19.2857 5.04115 18.5842L8.53244 15.0766C9.70708 13.9019 11.5995 13.9019 12.7579 15.0603L17.6848 19.9872C18.3374 20.6235 19.3652 20.6235 20.0015 20.0035C20.6541 19.351 20.6541 18.2905 20.0178 17.6379L15.0582 12.6784C13.9488 11.52 13.9651 9.67651 15.0908 8.55081C16.2328 7.4088 18.0764 7.39249 19.2347 8.48555L27.294 16.5449L27.6856 16.9364C28.4687 17.7195 29.7249 17.7195 30.4917 16.9364C31.2747 16.1533 31.2747 14.8971 30.4917 14.1303L30.2469 13.8856L30.0838 13.7225L17.1791 0.817776L16.9507 0.589375C16.1513 -0.193717 14.8951 -0.193718 14.1283 0.57306Z" fill="white"/>
<path d="M44.6526 21.4718H39.1383L38.1105 24.0006H34.3419L40.1009 10.949H43.739L49.5143 24.0006H45.6804L44.6526 21.4718ZM43.5758 18.7473L41.8954 14.5708L40.2151 18.7473H43.5758Z" fill="white"/>
<path d="M54.9796 20.4603L53.9355 21.5208V24.0006H50.3952V10.1659H53.9355V17.4259L57.5573 13.9019H61.7501L57.5573 18.2253L62.109 24.0006H57.8183L54.9796 20.4603Z" fill="white"/>
<path d="M70.1683 23.5927C69.8747 23.7722 69.4994 23.919 69.0753 24.0169C68.6511 24.1148 68.1943 24.1637 67.7048 24.1637C66.3834 24.1637 65.3719 23.8374 64.6704 23.2012C63.9688 22.5486 63.6099 21.586 63.6099 20.3135V16.9201H62.1416V14.2772H63.6099V11.6505H67.1502V14.2772H69.4668V16.9201H67.1502V20.2809C67.1502 20.6398 67.248 20.9171 67.4438 21.1292C67.6396 21.3413 67.9006 21.4392 68.2106 21.4392C68.6185 21.4392 68.9774 21.3413 69.2873 21.1292L70.1683 23.5927Z" fill="white"/>
<path d="M75.0627 13.9019H71.5224V24.0006H75.0627V13.9019Z" fill="white"/>
<path d="M88 13.9019L83.8235 24.0006H80.1691L76.0089 13.9019H79.647L82.0779 20.0688L84.6392 13.9019H88Z" fill="white"/>
<path d="M73.3007 12.6457C74.4991 12.6457 75.4705 11.6743 75.4705 10.4759C75.4705 9.27756 74.4991 8.30609 73.3007 8.30609C72.1024 8.30609 71.1309 9.27756 71.1309 10.4759C71.1309 11.6743 72.1024 12.6457 73.3007 12.6457Z" fill="white"/>
<path d="M35.3044 31.0647V26.9372H38.0452V27.5082H35.957V28.7318H37.7189V29.2701H35.957V31.0484H35.3044V31.0647Z" fill="white"/>
<path d="M38.5836 27.5245V26.823H39.2199V27.5245H38.5836ZM38.5836 31.0647V28.0302H39.2199V31.0647H38.5836Z" fill="white"/>
<path d="M42.7112 31.0647H42.0749V29.368C42.0749 29.0744 42.026 28.8786 41.9444 28.7481C41.8465 28.6176 41.716 28.5523 41.5365 28.5523C41.4386 28.5523 41.3571 28.5686 41.2592 28.6013C41.1613 28.6339 41.0797 28.6828 40.9982 28.7481C40.9166 28.8133 40.8513 28.8949 40.7861 28.9765C40.7208 29.0581 40.6719 29.1559 40.6392 29.2701V31.081H40.003V28.0466H40.5903V28.6502C40.7045 28.4381 40.8676 28.2913 41.096 28.1608C41.3244 28.0466 41.5528 27.9813 41.8302 27.9813C42.0097 27.9813 42.1565 28.0139 42.2707 28.0792C42.3849 28.1444 42.4828 28.2423 42.548 28.3565C42.6133 28.4707 42.6622 28.6012 42.6949 28.7481C42.7275 28.8949 42.7275 29.0581 42.7275 29.2212V31.0647H42.7112Z" fill="white"/>
<path d="M44.261 31.13C44.1142 31.13 43.9837 31.1137 43.8532 31.0647C43.7227 31.0158 43.6248 30.9505 43.5269 30.869C43.429 30.7874 43.3637 30.6895 43.3148 30.559C43.2658 30.4448 43.2332 30.3143 43.2332 30.1838C43.2332 30.0369 43.2659 29.9064 43.3311 29.7922C43.3964 29.678 43.4779 29.5801 43.5921 29.4822C43.7063 29.4007 43.8369 29.3354 44 29.2865C44.1631 29.2375 44.3263 29.2212 44.5221 29.2212C44.6689 29.2212 44.7994 29.2375 44.9462 29.2538C45.0931 29.2865 45.2073 29.3191 45.3215 29.3517V29.1396C45.3215 28.9112 45.2562 28.7318 45.1257 28.6176C44.9952 28.487 44.8157 28.4218 44.571 28.4218C44.4079 28.4218 44.2447 28.4544 44.0979 28.5197C43.9347 28.5849 43.7716 28.6665 43.6085 28.7807L43.4127 28.3728C43.8042 28.1118 44.2121 27.9813 44.6363 27.9813C45.0604 27.9813 45.3867 28.0955 45.6151 28.3076C45.8435 28.5197 45.9577 28.8297 45.9577 29.2212V30.3143C45.9577 30.4448 46.0067 30.5264 46.1209 30.5264V31.0647C46.0556 31.081 46.0067 31.081 45.9577 31.081C45.9088 31.081 45.8762 31.081 45.8272 31.081C45.6967 31.081 45.6151 31.0484 45.5336 30.9832C45.4683 30.9179 45.4194 30.8363 45.403 30.7384L45.3867 30.5427C45.2562 30.7221 45.0768 30.8526 44.881 30.9505C44.7015 31.081 44.4894 31.13 44.261 31.13ZM44.4405 30.6569C44.5873 30.6569 44.7341 30.6242 44.881 30.5753C45.0115 30.5264 45.1257 30.4448 45.2073 30.3469C45.2888 30.2816 45.3215 30.2001 45.3215 30.1185V29.7106C45.2073 29.6617 45.0931 29.6291 44.9789 29.6128C44.8647 29.5964 44.7341 29.5801 44.6199 29.5801C44.3915 29.5801 44.2121 29.6291 44.0653 29.7269C43.9184 29.8248 43.8532 29.9553 43.8532 30.1185C43.8532 30.2653 43.9021 30.3958 44.0163 30.4937C44.1305 30.6079 44.261 30.6569 44.4405 30.6569Z" fill="white"/>
<path d="M49.4653 31.0647H48.8291V29.368C48.8291 29.0744 48.7801 28.8786 48.6985 28.7481C48.6006 28.6176 48.4701 28.5523 48.2907 28.5523C48.1928 28.5523 48.1112 28.5686 48.0133 28.6013C47.9155 28.6339 47.8339 28.6828 47.7523 28.7481C47.6707 28.8133 47.6055 28.8949 47.5402 28.9765C47.475 29.0581 47.426 29.1559 47.3934 29.2701V31.081H46.7571V28.0466H47.3444V28.6502C47.4586 28.4381 47.6218 28.2913 47.8502 28.1608C48.0786 28.0466 48.307 27.9813 48.5843 27.9813C48.7638 27.9813 48.9106 28.0139 49.0248 28.0792C49.139 28.1444 49.2369 28.2423 49.3022 28.3565C49.3674 28.4707 49.4164 28.6012 49.449 28.7481C49.4816 28.8949 49.4816 29.0581 49.4816 29.2212V31.0647H49.4653Z" fill="white"/>
<path d="M50.0037 29.5475C50.0037 29.3354 50.0364 29.1396 50.1179 28.9438C50.1995 28.7481 50.2974 28.5849 50.4279 28.4381C50.5584 28.2913 50.7379 28.1771 50.9173 28.0955C51.1131 28.0139 51.3252 27.965 51.5699 27.965C51.8799 27.965 52.1572 28.0302 52.3856 28.1771C52.614 28.3076 52.7772 28.5034 52.8914 28.7318L52.2714 28.9275C52.1899 28.797 52.092 28.6991 51.9778 28.6339C51.8473 28.5686 51.7167 28.5197 51.5699 28.5197C51.4394 28.5197 51.3252 28.5523 51.211 28.6012C51.0968 28.6502 50.9989 28.7154 50.9173 28.8133C50.8358 28.9112 50.7705 29.0091 50.7216 29.1396C50.6726 29.2701 50.6563 29.4007 50.6563 29.5475C50.6563 29.6943 50.6726 29.8248 50.7216 29.9553C50.7705 30.0859 50.8358 30.1837 50.9173 30.2816C50.9989 30.3795 51.0968 30.4448 51.211 30.4937C51.3252 30.5427 51.4394 30.5753 51.5699 30.5753C51.6515 30.5753 51.7167 30.559 51.7983 30.5427C51.8799 30.5263 51.9451 30.4937 52.0104 30.4448C52.0757 30.4121 52.1246 30.3632 52.1735 30.3143C52.2225 30.2653 52.2551 30.2164 52.2877 30.1511L52.9077 30.3306C52.8098 30.559 52.6303 30.7384 52.4019 30.8853C52.1735 31.0321 51.8799 31.0974 51.5699 31.0974C51.3415 31.0974 51.1131 31.0484 50.9173 30.9668C50.7216 30.8853 50.5584 30.7711 50.4279 30.6242C50.2974 30.4774 50.1832 30.3143 50.1016 30.1185C50.0364 29.9553 50.0037 29.7596 50.0037 29.5475Z" fill="white"/>
<path d="M53.446 27.5245V26.823H54.0823V27.5245H53.446ZM53.446 31.0647V28.0302H54.0823V31.0647H53.446Z" fill="white"/>
<path d="M55.6648 31.13C55.518 31.13 55.3875 31.1137 55.257 31.0647C55.1264 31.0158 55.0286 30.9505 54.9307 30.869C54.8328 30.7874 54.7675 30.6895 54.7186 30.559C54.6696 30.4448 54.637 30.3143 54.637 30.1838C54.637 30.0369 54.6696 29.9064 54.7349 29.7922C54.8001 29.678 54.8817 29.5801 54.9959 29.4822C55.1101 29.4007 55.2406 29.3354 55.4038 29.2865C55.5669 29.2375 55.7301 29.2212 55.9259 29.2212C56.0727 29.2212 56.2032 29.2375 56.35 29.2538C56.4969 29.2865 56.6111 29.3191 56.7253 29.3517V29.1396C56.7253 28.9112 56.66 28.7318 56.5295 28.6176C56.399 28.487 56.2195 28.4218 55.9748 28.4218C55.8116 28.4218 55.6485 28.4544 55.5017 28.5197C55.3385 28.5849 55.1754 28.6665 55.0122 28.7807L54.8165 28.3728C55.208 28.1118 55.6159 27.9813 56.04 27.9813C56.4642 27.9813 56.7905 28.0955 57.0189 28.3076C57.2473 28.5197 57.3615 28.8297 57.3615 29.2212V30.3143C57.3615 30.4448 57.4105 30.5264 57.5247 30.5264V31.0647C57.4594 31.081 57.4105 31.081 57.3615 31.081C57.3126 31.081 57.2799 31.081 57.231 31.081C57.1005 31.081 57.0189 31.0484 56.9373 30.9832C56.8721 30.9179 56.8231 30.8363 56.8068 30.7384L56.7905 30.5427C56.66 30.7221 56.4805 30.8526 56.2848 30.9505C56.1053 31.081 55.8932 31.13 55.6648 31.13ZM55.8443 30.6569C55.9911 30.6569 56.1379 30.6242 56.2848 30.5753C56.4153 30.5264 56.5295 30.4448 56.6111 30.3469C56.6926 30.2816 56.7253 30.2001 56.7253 30.1185V29.7106C56.6111 29.6617 56.4969 29.6291 56.3827 29.6128C56.2685 29.5964 56.1379 29.5801 56.0237 29.5801C55.7953 29.5801 55.6159 29.6291 55.469 29.7269C55.3222 29.8248 55.257 29.9553 55.257 30.1185C55.257 30.2653 55.3059 30.3958 55.4201 30.4937C55.518 30.6079 55.6648 30.6569 55.8443 30.6569Z" fill="white"/>
<path d="M58.1446 26.823H58.7809V30.1837C58.7809 30.2979 58.8135 30.3795 58.8625 30.4448C58.9277 30.51 59.0093 30.5427 59.1072 30.5427C59.1561 30.5427 59.2051 30.5427 59.254 30.5263C59.3029 30.51 59.3682 30.4937 59.4171 30.4774L59.515 30.9831C59.4172 31.0321 59.3193 31.0647 59.1887 31.081C59.0582 31.1137 58.944 31.1137 58.8461 31.1137C58.6177 31.1137 58.4546 31.0484 58.3241 30.9342C58.2099 30.82 58.1446 30.6405 58.1446 30.4285V26.823Z" fill="white"/>
<path d="M62.2558 26.9372H62.8269L64.4583 31.0647H63.7731L63.3326 29.939H61.7338L61.3096 31.0647H60.6244L62.2558 26.9372ZM63.2021 29.4659L62.5332 27.6876L61.848 29.4659H63.2021Z" fill="white"/>
<path d="M64.6051 29.5475C64.6051 29.3354 64.6377 29.1396 64.7193 28.9438C64.8009 28.7481 64.8988 28.5849 65.0293 28.4381C65.1598 28.2913 65.3393 28.1771 65.5187 28.0955C65.7145 28.0139 65.9266 27.965 66.1713 27.965C66.4813 27.965 66.7586 28.0302 66.987 28.1771C67.2154 28.3076 67.3786 28.5034 67.4928 28.7318L66.8728 28.9275C66.7912 28.797 66.6934 28.6991 66.5792 28.6339C66.4486 28.5686 66.3181 28.5197 66.1713 28.5197C66.0408 28.5197 65.9266 28.5523 65.8124 28.6012C65.6982 28.6502 65.6003 28.7154 65.5187 28.8133C65.4371 28.9112 65.3719 29.0091 65.3229 29.1396C65.274 29.2701 65.2577 29.4007 65.2577 29.5475C65.2577 29.6943 65.274 29.8248 65.3229 29.9553C65.3719 30.0859 65.4371 30.1837 65.5187 30.2816C65.6003 30.3795 65.6982 30.4448 65.8124 30.4937C65.9266 30.5427 66.0408 30.5753 66.1713 30.5753C66.2529 30.5753 66.3181 30.559 66.3997 30.5427C66.4813 30.5263 66.5465 30.4937 66.6118 30.4448C66.677 30.4121 66.726 30.3632 66.7749 30.3143C66.8239 30.2653 66.8565 30.2164 66.8891 30.1511L67.5091 30.3306C67.4112 30.559 67.2317 30.7384 67.0033 30.8853C66.7749 31.0321 66.4813 31.0974 66.1713 31.0974C65.9429 31.0974 65.7145 31.0484 65.5187 30.9668C65.3229 30.8853 65.1598 30.7711 65.0293 30.6242C64.8988 30.4774 64.7846 30.3143 64.703 30.1185C64.6377 29.9553 64.6051 29.7596 64.6051 29.5475Z" fill="white"/>
<path d="M68.8469 31.13C68.7001 31.13 68.5696 31.1137 68.439 31.0647C68.3085 31.0158 68.2106 30.9505 68.1127 30.869C68.0149 30.7874 67.9496 30.6895 67.9007 30.559C67.8517 30.4448 67.8191 30.3143 67.8191 30.1838C67.8191 30.0369 67.8517 29.9064 67.917 29.7922C67.9822 29.678 68.0638 29.5801 68.178 29.4822C68.2922 29.4007 68.4227 29.3354 68.5859 29.2865C68.749 29.2375 68.9122 29.2212 69.1079 29.2212C69.2548 29.2212 69.3853 29.2375 69.5321 29.2538C69.6789 29.2865 69.7931 29.3191 69.9073 29.3517V29.1396C69.9073 28.9112 69.8421 28.7318 69.7116 28.6176C69.5811 28.487 69.4016 28.4218 69.1569 28.4218C68.9937 28.4218 68.8306 28.4544 68.6838 28.5197C68.5206 28.5849 68.3575 28.6665 68.1943 28.7807L67.9986 28.3728C68.3901 28.1118 68.798 27.9813 69.2221 27.9813C69.6463 27.9813 69.9726 28.0955 70.201 28.3076C70.4294 28.5197 70.5436 28.8297 70.5436 29.2212V30.3143C70.5436 30.4448 70.5925 30.5264 70.7067 30.5264V31.0647C70.6415 31.081 70.5925 31.081 70.5436 31.081C70.4947 31.081 70.462 31.081 70.4131 31.081C70.2826 31.081 70.201 31.0484 70.1194 30.9832C70.0542 30.9179 70.0052 30.8363 69.9889 30.7384L69.9726 30.5427C69.8421 30.7221 69.6626 30.8526 69.4669 30.9505C69.3037 31.081 69.0753 31.13 68.8469 31.13ZM69.0264 30.6569C69.1732 30.6569 69.32 30.6242 69.4669 30.5753C69.5974 30.5264 69.7116 30.4448 69.7931 30.3469C69.8747 30.2816 69.9073 30.2001 69.9073 30.1185V29.7106C69.7931 29.6617 69.6789 29.6291 69.5647 29.6128C69.4505 29.5964 69.32 29.5801 69.2058 29.5801C68.9774 29.5801 68.798 29.6291 68.6511 29.7269C68.5043 29.8248 68.439 29.9553 68.439 30.1185C68.439 30.2653 68.488 30.3958 68.6022 30.4937C68.7164 30.6079 68.8469 30.6569 69.0264 30.6569Z" fill="white"/>
<path d="M72.5666 31.13C72.3545 31.13 72.175 31.081 71.9956 30.9995C71.8161 30.9179 71.6693 30.8037 71.5388 30.6569C71.4082 30.51 71.3104 30.3469 71.2451 30.1511C71.1798 29.9553 71.1309 29.7596 71.1309 29.5312C71.1309 29.3191 71.1635 29.1233 71.2288 28.9275C71.294 28.7318 71.3919 28.5686 71.5061 28.4381C71.6203 28.2913 71.7672 28.1771 71.9303 28.0955C72.0934 28.0139 72.2729 27.965 72.4687 27.965C72.7134 27.965 72.9255 28.0302 73.1213 28.1444C73.3007 28.2586 73.4475 28.4055 73.5617 28.6012V26.823H74.198V30.3143C74.198 30.3958 74.2143 30.4448 74.2306 30.4774C74.2633 30.51 74.2959 30.5263 74.3612 30.5263V31.0647C74.2959 31.081 74.247 31.081 74.198 31.081C74.1654 31.081 74.1164 31.081 74.1001 31.081C73.9696 31.081 73.8717 31.0484 73.7901 30.9831C73.7086 30.9179 73.6596 30.8363 73.6596 30.7221L73.6433 30.4937C73.5291 30.6895 73.3823 30.8363 73.1865 30.9342C73.0071 31.0647 72.795 31.13 72.5666 31.13ZM72.7134 30.5753C72.8113 30.5753 72.8929 30.559 72.9907 30.5263C73.0886 30.4937 73.1702 30.4448 73.2518 30.3958C73.3333 30.3469 73.3986 30.2816 73.4475 30.2001C73.4965 30.1185 73.5454 30.0532 73.5617 29.9553V29.1559C73.5291 29.058 73.4802 28.9765 73.4149 28.8949C73.3497 28.8133 73.2844 28.7481 73.2028 28.6828C73.1213 28.6176 73.0397 28.5849 72.9418 28.5523C72.8439 28.5197 72.7623 28.5034 72.6644 28.5034C72.5339 28.5034 72.4197 28.536 72.3055 28.5849C72.1913 28.6502 72.1098 28.7154 72.0282 28.8133C71.9466 28.9112 71.8977 29.0254 71.8487 29.1396C71.7998 29.2701 71.7835 29.3843 71.7835 29.5312C71.7835 29.678 71.7998 29.8085 71.8487 29.9227C71.8977 30.0532 71.9629 30.1511 72.0445 30.249C72.1261 30.3469 72.224 30.4121 72.3382 30.4774C72.4687 30.559 72.5829 30.5753 72.7134 30.5753Z" fill="white"/>
<path d="M76.4005 31.13C76.1721 31.13 75.9437 31.081 75.7479 30.9995C75.5521 30.9179 75.389 30.8037 75.2585 30.6569C75.1279 30.51 75.0137 30.3469 74.9322 30.1511C74.8506 29.9553 74.818 29.7596 74.818 29.5475C74.818 29.3354 74.8506 29.1396 74.9322 28.9438C75.0137 28.7481 75.1116 28.5849 75.2585 28.4381C75.389 28.2913 75.5684 28.1771 75.7479 28.0955C75.9437 28.0139 76.1557 27.965 76.4005 27.965C76.6289 27.965 76.8573 28.0139 77.0367 28.0955C77.2325 28.1771 77.3956 28.2913 77.5262 28.4381C77.6567 28.5849 77.7709 28.7481 77.8361 28.9275C77.9014 29.1233 77.9503 29.3191 77.9503 29.5149C77.9503 29.5638 77.9503 29.6127 77.9503 29.6454C77.9503 29.678 77.9503 29.7269 77.934 29.7433H75.5032C75.5195 29.8738 75.5521 30.0043 75.6011 30.1022C75.65 30.2164 75.7153 30.2979 75.7968 30.3795C75.8784 30.4611 75.9763 30.5263 76.0742 30.559C76.1884 30.6079 76.2863 30.6242 76.4005 30.6242C76.482 30.6242 76.5636 30.6079 76.6452 30.5916C76.7268 30.5753 76.8083 30.5427 76.8736 30.4937C76.9388 30.4611 77.0041 30.3958 77.053 30.3469C77.102 30.2816 77.1509 30.2327 77.1836 30.1511L77.7219 30.3143C77.624 30.5427 77.4446 30.7221 77.1999 30.8689C77.0041 31.0484 76.7268 31.13 76.4005 31.13ZM77.3304 29.3191C77.3141 29.1886 77.2814 29.0744 77.2325 28.9602C77.1836 28.846 77.1183 28.7644 77.0367 28.6828C76.9551 28.6012 76.8573 28.5523 76.7594 28.5034C76.6452 28.4544 76.531 28.4381 76.4168 28.4381C76.3026 28.4381 76.1884 28.4544 76.0742 28.5034C75.96 28.5523 75.8784 28.6012 75.7968 28.6828C75.7153 28.7644 75.65 28.846 75.6011 28.9602C75.5521 29.0744 75.5195 29.1886 75.5032 29.3191H77.3304Z" fill="white"/>
<path d="M83.122 31.0647H82.4857V29.368C82.4857 29.0907 82.4368 28.8786 82.3389 28.7481C82.241 28.6176 82.1105 28.5523 81.9311 28.5523C81.7516 28.5523 81.5885 28.6176 81.4416 28.7481C81.2948 28.8786 81.1806 29.058 81.1153 29.2701V31.0647H80.4791V29.368C80.4791 29.0744 80.4301 28.8786 80.3322 28.7481C80.2344 28.6176 80.1038 28.5523 79.9244 28.5523C79.7449 28.5523 79.5818 28.6176 79.4186 28.7481C79.2718 28.8786 79.1576 29.058 79.0924 29.2701V31.081H78.4561V28.0466H79.0434V28.6502C79.1576 28.4381 79.3207 28.275 79.5165 28.1608C79.7123 28.0466 79.9407 27.9813 80.1854 27.9813C80.4301 27.9813 80.6422 28.0466 80.789 28.1771C80.9359 28.3076 81.0174 28.4707 81.0664 28.6665C81.1969 28.4381 81.3601 28.275 81.5558 28.1444C81.7516 28.0302 81.9637 27.965 82.2247 27.965C82.4042 27.965 82.551 27.9976 82.6652 28.0629C82.7794 28.1281 82.8773 28.226 82.9426 28.3402C83.0078 28.4544 83.0568 28.5849 83.0894 28.7318C83.122 28.8786 83.122 29.0417 83.122 29.2049V31.0647Z" fill="white"/>
<path d="M83.9051 31.7825C83.9703 31.7989 84.0193 31.7989 84.0845 31.8152C84.1335 31.8152 84.1824 31.8315 84.2151 31.8315C84.264 31.8315 84.3129 31.8152 84.3456 31.7989C84.3782 31.7825 84.4271 31.7336 84.4598 31.6847C84.4924 31.6357 84.5413 31.5541 84.574 31.4563C84.6066 31.3584 84.6556 31.2279 84.7208 31.081L83.4646 28.0465H84.1172L85.0634 30.5263L85.8954 28.0465H86.4991L85.1287 31.7825C85.0634 31.962 84.9655 32.1088 84.8024 32.223C84.6556 32.3372 84.4598 32.4025 84.2151 32.4025C84.1661 32.4025 84.1172 32.4025 84.0682 32.3862C84.0193 32.3862 83.954 32.3699 83.9051 32.3536V31.7825Z" fill="white"/>
</svg>
